<?xml version="1.0" encoding="UTF-8" standalone="no"?>
<!-- Created with Inkscape (http://www.inkscape.org/) -->

<svg
   width="512"
   height="512"
   viewBox="0 0 512 512"
   version="1.1"
   id="svg1"
   xml:space="preserve"
   inkscape:version="1.3.2 (091e20e, 2023-11-25, custom)"
   sodipodi:docname="drawing.svg"
   inkscape:export-filename="drawin3g.png"
   inkscape:export-xdpi="9"
   inkscape:export-ydpi="9"
   xmlns:inkscape="http://www.inkscape.org/namespaces/inkscape"
   xmlns:sodipodi="http://sodipodi.sourceforge.net/DTD/sodipodi-0.dtd"
   xmlns:xlink="http://www.w3.org/1999/xlink"
   xmlns="http://www.w3.org/2000/svg"
   xmlns:svg="http://www.w3.org/2000/svg"><sodipodi:namedview
     id="namedview1"
     pagecolor="#ffffff"
     bordercolor="#000000"
     borderopacity="0.25"
     inkscape:showpageshadow="2"
     inkscape:pageopacity="0.0"
     inkscape:pagecheckerboard="0"
     inkscape:deskcolor="#d1d1d1"
     inkscape:document-units="px"
     inkscape:zoom="1.1048543"
     inkscape:cx="39.371706"
     inkscape:cy="208.17224"
     inkscape:window-width="1920"
     inkscape:window-height="1009"
     inkscape:window-x="-8"
     inkscape:window-y="-8"
     inkscape:window-maximized="1"
     inkscape:current-layer="layer4" /><defs
     id="defs1"><linearGradient
       id="linearGradient14"
       inkscape:collect="always"><stop
         style="stop-color:#000a4d;stop-opacity:1;"
         offset="0"
         id="stop14" /><stop
         style="stop-color:#3c8bff;stop-opacity:0.98457581;"
         offset="1"
         id="stop15" /></linearGradient><linearGradient
       id="linearGradient7"
       inkscape:collect="always"><stop
         style="stop-color:#028506;stop-opacity:1;"
         offset="0"
         id="stop7" /><stop
         style="stop-color:#213bf2;stop-opacity:1;"
         offset="1"
         id="stop8" /></linearGradient><linearGradient
       inkscape:collect="always"
       xlink:href="#linearGradient7"
       id="linearGradient8"
       x1="179.2"
       y1="507.19998"
       x2="302.08002"
       y2="193.59999"
       gradientUnits="userSpaceOnUse" /><linearGradient
       inkscape:collect="always"
       xlink:href="#linearGradient14"
       id="linearGradient15"
       x1="30.08"
       y1="140.79999"
       x2="489.59999"
       y2="140.79999"
       gradientUnits="userSpaceOnUse" /><clipPath
       clipPathUnits="userSpaceOnUse"
       id="clipPath5"><ellipse
         style="fill:#001971;fill-opacity:0.275269;stroke-width:1.47816"
         id="ellipse5"
         cx="62.080002"
         cy="154.88"
         rx="150.40001"
         ry="143.36" /></clipPath><clipPath
       clipPathUnits="userSpaceOnUse"
       id="clipPath6"><rect
         style="fill:url(#linearGradient9);fill-opacity:1"
         id="rect7"
         width="459.51999"
         height="119.04"
         x="30.08"
         y="81.279991"
         ry="26.879999" /></clipPath><linearGradient
       inkscape:collect="always"
       xlink:href="#linearGradient14"
       id="linearGradient9"
       gradientUnits="userSpaceOnUse"
       x1="30.08"
       y1="140.79999"
       x2="489.59999"
       y2="140.79999" /><clipPath
       clipPathUnits="userSpaceOnUse"
       id="clipPath9"><rect
         style="fill:url(#linearGradient10);fill-opacity:1"
         id="rect10"
         width="459.51999"
         height="119.04"
         x="30.08"
         y="81.279991"
         ry="26.879999" /></clipPath><linearGradient
       inkscape:collect="always"
       xlink:href="#linearGradient14"
       id="linearGradient10"
       gradientUnits="userSpaceOnUse"
       x1="30.08"
       y1="140.79999"
       x2="489.59999"
       y2="140.79999" /><clipPath
       clipPathUnits="userSpaceOnUse"
       id="clipPath11"><rect
         style="fill:url(#linearGradient12);fill-opacity:1;stroke-width:4.71125"
         id="rect12"
         width="2184.5837"
         height="555.77679"
         x="-66.285156"
         y="266.13004"
         ry="125.49799"
         transform="scale(-1,1)" /></clipPath><linearGradient
       inkscape:collect="always"
       xlink:href="#linearGradient14"
       id="linearGradient12"
       gradientUnits="userSpaceOnUse"
       x1="30.08"
       y1="140.79999"
       x2="489.59999"
       y2="140.79999"
       gradientTransform="matrix(4.754056,0,0,4.668824,-209.28716,-113.35194)" /></defs><g
     inkscape:groupmode="layer"
     id="layer3"
     inkscape:label="Layer 3" /><g
     inkscape:groupmode="layer"
     id="layer2"
     inkscape:label="Layer 2"><rect
       style="fill:url(#linearGradient8);stroke-width:1.04399"
       id="rect2"
       width="110.08"
       height="318.07996"
       x="202.24001"
       y="167.04001"
       ry="25.809124" /></g><g
     inkscape:label="Layer 1"
     inkscape:groupmode="layer"
     id="layer1"><rect
       style="fill:url(#linearGradient15);fill-opacity:1"
       id="rect1"
       width="459.51999"
       height="119.04"
       x="30.08"
       y="81.279991"
       ry="26.879999" /></g><g
     inkscape:groupmode="layer"
     id="layer4"
     inkscape:label="Layer 4"><ellipse
       style="fill:#7594ff;fill-opacity:0.24516129;stroke-width:2.3381"
       id="ellipse16"
       cx="54.400005"
       cy="145.28"
       rx="237.44"
       ry="227.2"
       clip-path="url(#clipPath6)" /><rect
       style="fill:url(#linearGradient15);fill-opacity:1"
       id="rect26"
       width="459.51999"
       height="119.04"
       x="30.08"
       y="81.279991"
       ry="26.879999"
       clip-path="url(#clipPath5)" /><ellipse
       style="fill:#000a2c;fill-opacity:0.24516129"
       id="path15"
       cx="62.719997"
       cy="160.32001"
       rx="97.279999"
       ry="101.44"
       clip-path="url(#clipPath9)" /><g
       id="g5318"
       transform="matrix(-0.2103467,0,0,0.2141867,44.022864,24.278478)"
       inkscape:groupmode="layer"
       clip-path="url(#clipPath11)"><ellipse
         id="circle4657"
         cy="636.64795"
         cx="-107.1429"
         style="fill:#178181;fill-opacity:1"
         rx="249.99994"
         ry="250" /><path
         id="path4659"
         d="m 142.85704,636.64796 c 0,-50.15918 -14.76953,-96.86621 -40.20019,-136.01074 0,0 -14.261714,20.83398 -11.582027,34.22558 2.677734,13.39356 18.413077,14.41602 16.796867,24.24024 -1.61621,9.82422 -13.223625,-2.81153 -27.511708,23.0791 -14.287106,25.89258 -7.140623,61.61719 13.392575,64.29102 20.534173,2.67187 49.104483,-9.8252 49.104483,-9.8252 z"
         style="fill:#2aa846;fill-opacity:1" /><path
         id="path4661"
         d="m -41.488621,395.3589 c 29.098626,7.89843 56.087877,20.92187 79.938457,38.03808 0,0 -28.9882739,-4.78125 -39.9697165,5.03711 -10.9804665,9.82129 -26.9951105,33.03907 -39.9697165,0 -12.972653,-33.03711 9.76e-4,-43.07519 9.76e-4,-43.07519 z"
         style="fill:#2aa846;fill-opacity:1" /><path
         id="path4663"
         d="m -295.11258,471.82276 c 45.81835,-52.21191 113.04294,-85.1748 187.96968,-85.1748 0,0 -16.96093,10.26953 15.181635,27.67969 32.143547,17.41211 17.410152,25.44629 10.713865,30.80371 -6.695311,5.35742 -18.309566,-10.71387 -25.8955,-21.42676 -7.58691,-10.71582 -40.16796,-27.23144 -65.16991,-18.30078 -25.00097,8.93066 -46.42479,15.52734 -42.85643,23.83594 3.56738,8.30664 46.42479,-7.75879 62.49608,-6.87012 16.07128,0.89062 10.71386,10.70996 -4.46192,22.31836 -15.17773,11.6084 -16.96679,25.89258 -0.89453,34.82031 16.07031,8.93164 35.70898,9.8252 40.1787,4.46875 4.4668,-5.35742 -8.03613,-40.17871 22.322264,-25.00195 30.35839,15.17676 55.359361,24.1123 30.35839,46.43066 -25.001946,22.31641 -53.571274,47.3252 -54.465804,61.60547 -0.89453,14.28223 8.93164,25.89844 3.57422,26.78711 -5.35743,0.88867 -10.27442,-5.80176 -13.84375,-10.71582 -3.56738,-4.91113 -20.08886,-6.69434 -28.12402,-3.57227 -8.03613,3.12207 -23.21679,15.17676 -14.73242,26.78516 8.48535,11.61035 20.08301,6.24609 31.69336,11.60449 11.60839,5.35742 22.43358,25.74707 20.21093,30.35547 -2.22266,4.60645 -12.11816,-1.22656 -20.21093,-16.96191 -8.09473,-15.73731 -23.27637,-5.35742 -33.958,-8.03614 -10.68262,-2.67773 -18.71875,-4.46289 -29.43359,-23.21386 -10.71484,-18.74903 -32.89745,-23.9961 -41.9619,-34.82031 -25.96582,-31.00586 -24.1084,-54.46387 -29.46484,-65.17774 -5.35742,-10.7168 -19.22558,-28.22266 -19.22558,-28.22266 z"
         style="fill:#2aa846;fill-opacity:1" /><path
         id="path4665"
         d="m -83.036462,640.22023 c 0,0 26.786126,2.67382 40.178701,14.28418 13.392575,11.60839 15.181637,16.07519 35.7158115,20.53808 20.5341745,4.46094 29.4648365,16.06543 16.0712852,38.38965 -13.3925749,22.32129 -37.5038967,58.03711 -49.1083867,68.75195 -11.603512,10.71582 -25.890618,19.64356 -31.248039,37.5 -5.356444,17.85449 -7.145506,28.5625 4.46289,35.71094 0,0 -6.246093,15.18066 -20.533198,-4.46289 -14.288082,-19.64551 -2.679687,-42.85645 0,-56.25 2.677733,-13.3916 9.819333,-53.56641 5.355467,-63.39258 -4.460936,-9.82324 -25.000969,-16.07519 -30.358389,-36.60742 -5.35742,-20.5332 4.01855,-60.49219 29.463858,-54.46191 z"
         style="fill:#2aa846;fill-opacity:1" /><path
         id="path4667"
         d="m -283.92019,459.87256 c 97.63181,-97.63379 255.919848,-97.63184 353.552638,0 97.632792,97.62988 97.632792,255.91992 9.7e-4,353.55175 0,0 113.425772,-149.99023 -47.16111,-310.57714 C -138.11554,342.25927 -283.92019,459.87256 -283.92019,459.87256 Z"
         style="opacity:0.367001;fill:#414141;fill-opacity:1;enable-background:new" /></g><path
       style="fill:#001971;fill-opacity:0.275269;stroke:#ffffff;stroke-width:2.25504;stroke-dasharray:9.02014, 4.51007;stroke-dashoffset:0;stroke-opacity:1"
       d="m 218.88109,200.9585 2.5578,261.12359"
       id="path12" /><path
       style="fill:#001971;fill-opacity:0.275269;stroke:#ffffff;stroke-width:2.2496;stroke-dasharray:8.99838, 4.49919;stroke-dashoffset:0;stroke-opacity:1"
       d="M 291.84098,203.51865 294.399,463.36188"
       id="path13" /><path
       style="fill:#001971;fill-opacity:0.275269;stroke:#ffffff;stroke-width:2.25504;stroke-dasharray:9.02014, 4.51007;stroke-dashoffset:0;stroke-opacity:1"
       d="m 227.84109,202.2385 2.5578,261.12359"
       id="path14" /><path
       style="fill:#001971;fill-opacity:0.275269;stroke:#ffffff;stroke-width:2.2496;stroke-dasharray:8.99838, 4.49919;stroke-dashoffset:0;stroke-opacity:1"
       d="M 284.16098,203.51865 286.719,463.36188"
       id="path16" /><path
       style="fill:none;fill-opacity:0.275269;stroke:#ffffff;stroke-width:0.9;stroke-dasharray:none;stroke-dashoffset:0;stroke-opacity:1"
       d="m 152.32,121.6 c 35.84,-38.4 55.04,24.32 80.64,34.56 25.6,10.24 37.12,-33.28 51.2,-39.68 14.08,-6.4 39.68,2.56 39.68,2.56 v 0"
       id="path17" /><path
       d="m 337.86279,96.492823 c -0.67364,0.38415 -1.96712,1.10248 -2.87027,1.60906 -0.89972,0.50454 -2.45642,1.37442 -3.45556,1.930817 -0.99912,0.55637 -2.59338,1.44914 -3.5409,1.98274 -0.94751,0.53363 -2.53493,1.42221 -3.52381,1.97236 -0.9889,0.55016 -2.57633,1.43877 -3.52383,1.97237 -2.84637,1.59451 -5.11126,2.86096 -7.04766,3.94472 -1.00937,0.56262 -2.55583,1.4263 -3.43849,1.92043 -0.88267,0.49416 -2.61727,1.46369 -3.8519,2.16342 l -2.24743,1.26442 -0.5251,-0.0942 c -1.28805,-0.23338 -2.73885,0.1496 -4.62023,1.2085 -3.0136,1.69629 -4.51983,3.79423 -3.98612,5.54721 0.25729,0.86075 0.86822,1.54936 1.63946,1.85589 0.91785,0.35524 2.0703,0.26594 3.59378,-0.282 0.79076,-0.29161 3.00754,-1.60638 3.6029,-2.14984 1.21124,-1.09934 1.83311,-2.02963 2.0168,-3.00359 l 0.0614,-0.32186 1.98143,-1.3095 c 1.09311,-0.71707 2.6897,-1.77505 3.55114,-2.34247 0.86487,-0.56949 2.34923,-1.55057 3.30239,-2.18245 2.07701,-1.36767 4.50433,-2.97437 6.75841,-4.45841 0.90922,-0.59648 2.4209,-1.5942 3.35359,-2.21362 0.93611,-0.62151 2.44438,-1.6171 3.3536,-2.21361 0.90923,-0.59649 2.44138,-1.60665 3.40479,-2.24477 0.96341,-0.63813 2.44779,-1.619177 3.3024,-2.182457 0.85462,-0.56326 2.13122,-1.40922 2.85013,-1.87269 l 1.29404,-0.84803 -0.10338,-0.16985 -0.10339,-0.16986 z m -33.5799,21.111077 c -1.13062,2.08485 -4.57661,4.20814 -6.96068,4.27974 -0.24215,0.009 -0.46127,-0.0124 -0.48042,-0.0438 -0.0421,-0.0692 0.32877,-0.74327 0.59991,-1.08935 1.51878,-1.9159 4.50459,-3.53493 6.5808,-3.57437 0.20037,-10e-4 0.37727,0.0204 0.39642,0.0519 0.0191,0.0314 -0.0429,0.19853 -0.13604,0.37593 z"
       id="path1"
       style="fill:#949494;stroke:none;stroke-width:0.00542462;fill-opacity:1" /></g></svg>
